Raleway-SemiBold-Italic.ufo
<glyph name="one" format="1">
  <advance width="455"/>
  <unicode hex="0031"/>
  <outline>
    <contour>
      <point x="1" y="0" type="line"/>
      <point x="370" y="0" type="line"/>
      <point x="391" y="99" type="line"/>
      <point x="270" y="99" type="line"/>
      <point x="370" y="571" type="line"/>
      <point x="257" y="571" type="line"/>
      <point x="244" y="552"/>
      <point x="134" y="476"/>
      <point x="83" y="476" type="curve"/>
      <point x="61" y="373" type="line"/>
      <point x="111" y="373"/>
      <point x="203" y="417"/>
      <point x="232" y="448" type="curve"/>
      <point x="158" y="99" type="line"/>
      <point x="23" y="99" type="line"/>
    </contour>
  </outline>
</glyph>
<glyph name="eight" format="1">
  <advance width="579"/>
  <unicode hex="0038"/>
  <outline>
    <contour>
      <point x="222" y="-8" type="curve" smooth="yes"/>
      <point x="371" y="-8"/>
      <point x="515" y="93"/>
      <point x="515" y="238" type="curve" smooth="yes"/>
      <point x="515" y="304"/>
      <point x="478" y="356"/>
      <point x="433" y="380" type="curve"/>
      <point x="497" y="408"/>
      <point x="561" y="471"/>
      <point x="561" y="550" type="curve" smooth="yes"/>
      <point x="561" y="654"/>
      <point x="467" y="710"/>
      <point x="376" y="710" type="curve" smooth="yes"/>
      <point x="263" y="710"/>
      <point x="112" y="630"/>
      <point x="112" y="494" type="curve" smooth="yes"/>
      <point x="112" y="444"/>
      <point x="140" y="400"/>
      <point x="177" y="380" type="curve"/>
      <point x="109" y="350"/>
      <point x="22" y="280"/>
      <point x="22" y="173" type="curve" smooth="yes"/>
      <point x="22" y="68"/>
      <point x="104" y="-8"/>
    </contour>
    <contour>
      <point x="245" y="91" type="curve" smooth="yes"/>
      <point x="189" y="91"/>
      <point x="137" y="130"/>
      <point x="137" y="191" type="curve" smooth="yes"/>
      <point x="137" y="275"/>
      <point x="220" y="334"/>
      <point x="295" y="334" type="curve" smooth="yes"/>
      <point x="352" y="334"/>
      <point x="404" y="297"/>
      <point x="404" y="234" type="curve" smooth="yes"/>
      <point x="404" y="150"/>
      <point x="319" y="91"/>
    </contour>
    <contour>
      <point x="314" y="418" type="curve" smooth="yes"/>
      <point x="269" y="418"/>
      <point x="223" y="446"/>
      <point x="223" y="498" type="curve" smooth="yes"/>
      <point x="223" y="567"/>
      <point x="290" y="612"/>
      <point x="355" y="612" type="curve" smooth="yes"/>
      <point x="406" y="612"/>
      <point x="447" y="582"/>
      <point x="447" y="533" type="curve" smooth="yes"/>
      <point x="447" y="459"/>
      <point x="371" y="418"/>
    </contour>
  </outline>
</glyph>
<glyph name="less" format="1">
  <advance width="549"/>
  <unicode hex="003C"/>
  <outline>
    <contour>
      <point x="30" y="229" type="line"/>
      <point x="450" y="-21" type="line"/>
      <point x="450" y="101" type="line"/>
      <point x="189" y="259" type="line"/>
      <point x="450" y="421" type="line"/>
      <point x="450" y="538" type="line"/>
      <point x="30" y="284" type="line"/>
    </contour>
  </outline>
</glyph>
<glyph name="P" format="1">
  <advance width="601"/>
  <unicode hex="0050"/>
  <outline>
    <contour>
      <point x="15" y="0" type="line"/>
      <point x="128" y="0" type="line"/>
      <point x="180" y="247" type="line"/>
      <point x="356" y="247" type="line" smooth="yes"/>
      <point x="498" y="247"/>
      <point x="617" y="387"/>
      <point x="617" y="518" type="curve" smooth="yes"/>
      <point x="617" y="616"/>
      <point x="555" y="710"/>
      <point x="450" y="710" type="curve" smooth="yes"/>
      <point x="166" y="710" type="line"/>
    </contour>
    <contour>
      <point x="201" y="346" type="line"/>
      <point x="258" y="611" type="line"/>
      <point x="421" y="611" type="line" smooth="yes"/>
      <point x="467" y="611"/>
      <point x="501" y="570"/>
      <point x="501" y="509" type="curve" smooth="yes"/>
      <point x="501" y="422"/>
      <point x="440" y="346"/>
      <point x="371" y="346" type="curve" smooth="yes"/>
    </contour>
  </outline>
</glyph>
<glyph name="U" format="1">
  <advance width="722"/>
  <unicode hex="0055"/>
  <outline>
    <contour>
      <point x="416" y="708" type="move" name="top"/>
    </contour>
    <contour>
      <point x="312" y="0" type="move" name="bottom"/>
    </contour>
    <contour>
      <point x="296" y="-5" type="curve" smooth="yes"/>
      <point x="504" y="-5"/>
      <point x="622" y="156"/>
      <point x="663" y="350" type="curve" smooth="yes"/>
      <point x="740" y="710" type="line"/>
      <point x="627" y="710" type="line"/>
      <point x="551" y="350" type="line" smooth="yes"/>
      <point x="524" y="223"/>
      <point x="455" y="96"/>
      <point x="317" y="96" type="curve" smooth="yes"/>
      <point x="216" y="96"/>
      <point x="181" y="164"/>
      <point x="181" y="253" type="curve" smooth="yes"/>
      <point x="181" y="283"/>
      <point x="185" y="316"/>
      <point x="192" y="350" type="curve" smooth="yes"/>
      <point x="269" y="710" type="line"/>
      <point x="156" y="710" type="line"/>
      <point x="80" y="350" type="line" smooth="yes"/>
      <point x="71" y="310"/>
      <point x="66" y="270"/>
      <point x="66" y="233" type="curve" smooth="yes"/>
      <point x="66" y="100"/>
      <point x="128" y="-5"/>
    </contour>
  </outline>
</glyph>
<glyph name="c" format="1">
  <advance width="536"/>
  <unicode hex="0063"/>
  <outline>
    <contour>
      <point x="341" y="522" type="move" name="top"/>
    </contour>
    <contour>
      <point x="241" y="0" type="move" name="bottom"/>
    </contour>
    <contour>
      <point x="227" y="-10" type="curve" smooth="yes"/>
      <point x="332" y="-10"/>
      <point x="426" y="46"/>
      <point x="475" y="124" type="curve"/>
      <point x="374" y="156" type="line"/>
      <point x="351" y="116"/>
      <point x="295" y="84"/>
      <point x="245" y="84" type="curve" smooth="yes"/>
      <point x="178" y="84"/>
      <point x="133" y="143"/>
      <point x="133" y="223" type="curve" smooth="yes"/>
      <point x="133" y="343"/>
      <point x="224" y="438"/>
      <point x="319" y="438" type="curve" smooth="yes"/>
      <point x="367" y="438"/>
      <point x="403" y="412"/>
      <point x="417" y="368" type="curve"/>
      <point x="531" y="402" type="line"/>
      <point x="510" y="480"/>
      <point x="445" y="532"/>
      <point x="341" y="532" type="curve" smooth="yes"/>
      <point x="158" y="532"/>
      <point x="19" y="377"/>
      <point x="19" y="210" type="curve" smooth="yes"/>
      <point x="19" y="90"/>
      <point x="93" y="-10"/>
    </contour>
  </outline>
</glyph>
<glyph name="e" format="1">
  <advance width="545"/>
  <unicode hex="0065"/>
  <outline>
    <contour>
      <point x="343" y="522" type="move" name="top"/>
    </contour>
    <contour>
      <point x="242" y="0" type="move" name="bottom"/>
    </contour>
    <contour>
      <point x="229" y="-10" type="curve" smooth="yes"/>
      <point x="330" y="-10"/>
      <point x="430" y="45"/>
      <point x="481" y="124" type="curve"/>
      <point x="394" y="151" type="line"/>
      <point x="363" y="102"/>
      <point x="305" y="71"/>
      <point x="248" y="71" type="curve" smooth="yes"/>
      <point x="168" y="71"/>
      <point x="132" y="132"/>
      <point x="132" y="209" type="curve" smooth="yes"/>
      <point x="132" y="316"/>
      <point x="197" y="451"/>
      <point x="330" y="451" type="curve" smooth="yes"/>
      <point x="385" y="451"/>
      <point x="420" y="430"/>
      <point x="420" y="385" type="curve" smooth="yes"/>
      <point x="420" y="332"/>
      <point x="372" y="296"/>
      <point x="231" y="296" type="curve" smooth="yes"/>
      <point x="197" y="296"/>
      <point x="159" y="298"/>
      <point x="117" y="302" type="curve"/>
      <point x="93" y="231" type="line"/>
      <point x="144" y="226"/>
      <point x="191" y="224"/>
      <point x="229" y="224" type="curve" smooth="yes"/>
      <point x="426" y="224"/>
      <point x="522" y="280"/>
      <point x="522" y="388" type="curve" smooth="yes"/>
      <point x="522" y="482"/>
      <point x="451" y="532"/>
      <point x="344" y="532" type="curve" smooth="yes"/>
      <point x="160" y="532"/>
      <point x="20" y="381"/>
      <point x="20" y="211" type="curve" smooth="yes"/>
      <point x="20" y="85"/>
      <point x="97" y="-10"/>
    </contour>
  </outline>
</glyph>
<glyph name="y" format="1">
  <advance width="510"/>
  <unicode hex="0079"/>
  <outline>
    <contour>
      <point x="301" y="522" type="move" name="top"/>
    </contour>
    <contour>
      <point x="-25" y="-226" type="line"/>
      <point x="82" y="-225"/>
      <point x="151" y="-174"/>
      <point x="243" y="-26" type="curve" smooth="yes"/>
      <point x="323" y="103" type="line" smooth="yes"/>
      <point x="455" y="316"/>
      <point x="493" y="394"/>
      <point x="529" y="523" type="curve"/>
      <point x="421" y="523" type="line"/>
      <point x="392" y="402"/>
      <point x="353" y="313"/>
      <point x="255" y="153" type="curve" smooth="yes"/>
      <point x="221" y="97" type="line"/>
      <point x="162" y="523" type="line"/>
      <point x="49" y="523" type="line"/>
      <point x="143" y="-11" type="line"/>
      <point x="114" y="-53" type="line" smooth="yes"/>
      <point x="71" y="-115"/>
      <point x="43" y="-131"/>
      <point x="-40" y="-140" type="curve"/>
    </contour>
  </outline>
</glyph>
<glyph name="brokenbar" format="1">
  <advance width="308"/>
  <unicode hex="00A6"/>
  <outline>
    <contour>
      <point x="112" y="269" type="line"/>
      <point x="112" y="-130" type="line"/>
      <point x="206" y="-130" type="line"/>
      <point x="206" y="269" type="line"/>
    </contour>
    <contour>
      <point x="112" y="775" type="line"/>
      <point x="112" y="376" type="line"/>
      <point x="206" y="376" type="line"/>
      <point x="206" y="775" type="line"/>
    </contour>
  </outline>
</glyph>
<glyph name="guillemotleft" format="1">
  <advance width="601"/>
  <unicode hex="00AB"/>
  <outline>
    <contour>
      <point x="23" y="229" type="line"/>
      <point x="232" y="54" type="line"/>
      <point x="251" y="144" type="line"/>
      <point x="117" y="259" type="line"/>
      <point x="301" y="378" type="line"/>
      <point x="321" y="469" type="line"/>
      <point x="35" y="284" type="line"/>
    </contour>
    <contour>
      <point x="281" y="229" type="line"/>
      <point x="490" y="54" type="line"/>
      <point x="510" y="144" type="line"/>
      <point x="375" y="259" type="line"/>
      <point x="559" y="378" type="line"/>
      <point x="578" y="469" type="line"/>
      <point x="292" y="284" type="line"/>
    </contour>
  </outline>
</glyph>
<glyph name="guillemotright" format="1">
  <advance width="601"/>
  <unicode hex="00BB"/>
  <outline>
    <contour>
      <point x="559" y="284" type="line"/>
      <point x="352" y="469" type="line"/>
      <point x="332" y="378" type="line"/>
      <point x="466" y="259" type="line"/>
      <point x="283" y="144" type="line"/>
      <point x="264" y="54" type="line"/>
      <point x="547" y="229" type="line"/>
    </contour>
    <contour>
      <point x="301" y="284" type="line"/>
      <point x="93" y="469" type="line"/>
      <point x="75" y="378" type="line"/>
      <point x="208" y="259" type="line"/>
      <point x="25" y="144" type="line"/>
      <point x="5" y="54" type="line"/>
      <point x="289" y="229" type="line"/>
    </contour>
  </outline>
</glyph>
<glyph name="germandbls" format="1">
  <advance width="535"/>
  <unicode hex="00DF"/>
  <outline>
    <contour>
      <point x="170" y="-6" type="line"/>
      <point x="338" y="-1"/>
      <point x="487" y="79"/>
      <point x="487" y="251" type="curve" smooth="yes"/>
      <point x="487" y="324"/>
      <point x="453" y="385"/>
      <point x="387" y="402" type="curve"/>
      <point x="447" y="421"/>
      <point x="511" y="500"/>
      <point x="511" y="580" type="curve" smooth="yes"/>
      <point x="511" y="662"/>
      <point x="449" y="714"/>
      <point x="358" y="714" type="curve" smooth="yes"/>
      <point x="239" y="714"/>
      <point x="135" y="633"/>
      <point x="111" y="520" type="curve" smooth="yes"/>
      <point x="0" y="0" type="line"/>
      <point x="105" y="0" type="line"/>
      <point x="212" y="501" type="line" smooth="yes"/>
      <point x="225" y="565"/>
      <point x="265" y="620"/>
      <point x="330" y="620" type="curve" smooth="yes"/>
      <point x="369" y="620"/>
      <point x="401" y="598"/>
      <point x="401" y="553" type="curve" smooth="yes"/>
      <point x="401" y="493"/>
      <point x="356" y="445"/>
      <point x="295" y="445" type="curve" smooth="yes"/>
      <point x="276" y="445" type="line"/>
      <point x="255" y="345" type="line"/>
      <point x="275" y="345" type="line" smooth="yes"/>
      <point x="333" y="345"/>
      <point x="373" y="308"/>
      <point x="373" y="246" type="curve" smooth="yes"/>
      <point x="373" y="144"/>
      <point x="294" y="97"/>
      <point x="192" y="95" type="curve"/>
    </contour>
  </outline>
</glyph>
<glyph name="Hbar" format="1">
  <advance width="724"/>
  <unicode hex="0126"/>
  <outline>
    <contour>
      <point x="89" y="546" type="line"/>
      <point x="741" y="546" type="line"/>
      <point x="753" y="602" type="line"/>
      <point x="101" y="602" type="line"/>
    </contour>
    <contour>
      <point x="20" y="0" type="line"/>
      <point x="133" y="0" type="line"/>
      <point x="200" y="313" type="line"/>
      <point x="532" y="313" type="line"/>
      <point x="465" y="0" type="line"/>
      <point x="578" y="0" type="line"/>
      <point x="729" y="710" type="line"/>
      <point x="616" y="710" type="line"/>
      <point x="553" y="413" type="line"/>
      <point x="221" y="413" type="line"/>
      <point x="284" y="710" type="line"/>
      <point x="171" y="710" type="line"/>
    </contour>
  </outline>
</glyph>
<glyph name="kgreenlandic" format="1">
  <advance width="528"/>
  <unicode hex="0138"/>
  <outline>
    <contour>
      <point x="0" y="0" type="line"/>
      <point x="110" y="0" type="line"/>
      <point x="144" y="159" type="line"/>
      <point x="241" y="241" type="line"/>
      <point x="345" y="0" type="line"/>
      <point x="463" y="0" type="line"/>
      <point x="324" y="303" type="line"/>
      <point x="561" y="522" type="line"/>
      <point x="443" y="522" type="line"/>
      <point x="167" y="267" type="line"/>
      <point x="222" y="523" type="line"/>
      <point x="112" y="523" type="line"/>
    </contour>
  </outline>
</glyph>
<glyph name="Eng" format="1">
  <advance width="726"/>
  <unicode hex="014A"/>
  <outline>
    <contour>
      <point x="376" y="-191" type="curve" smooth="yes"/>
      <point x="464" y="-191"/>
      <point x="557" y="-120"/>
      <point x="579" y="-15" type="curve" smooth="yes"/>
      <point x="733" y="709" type="line"/>
      <point x="621" y="709" type="line"/>
      <point x="513" y="204" type="line"/>
      <point x="253" y="710" type="line"/>
      <point x="166" y="710" type="line"/>
      <point x="15" y="0" type="line"/>
      <point x="128" y="0" type="line"/>
      <point x="234" y="498" type="line"/>
      <point x="477" y="21" type="line"/>
      <point x="468" y="-19" type="line" smooth="yes"/>
      <point x="459" y="-63"/>
      <point x="420" y="-95"/>
      <point x="383" y="-95" type="curve" smooth="yes"/>
      <point x="362" y="-95"/>
      <point x="341" y="-88"/>
      <point x="329" y="-72" type="curve"/>
      <point x="265" y="-146" type="line"/>
      <point x="291" y="-177"/>
      <point x="331" y="-191"/>
    </contour>
  </outline>
</glyph>
<glyph name="Tbar" format="1">
  <advance width="618"/>
  <unicode hex="0166"/>
  <outline>
    <contour>
      <point x="69" y="332" type="line"/>
      <point x="559" y="332" type="line"/>
      <point x="571" y="388" type="line"/>
      <point x="81" y="388" type="line"/>
    </contour>
    <contour>
      <point x="187" y="0" type="line"/>
      <point x="300" y="0" type="line"/>
      <point x="430" y="611" type="line"/>
      <point x="652" y="611" type="line"/>
      <point x="673" y="710" type="line"/>
      <point x="116" y="710" type="line"/>
      <point x="95" y="611" type="line"/>
      <point x="317" y="611" type="line"/>
    </contour>
  </outline>
</glyph>
<glyph name="tbar" format="1">
  <advance width="355"/>
  <unicode hex="0167"/>
  <outline>
    <contour>
      <point x="22" y="280" type="line"/>
      <point x="305" y="280" type="line"/>
      <point x="320" y="347" type="line"/>
      <point x="36" y="347" type="line"/>
    </contour>
    <contour>
      <point x="149" y="-8" type="curve" smooth="yes"/>
      <point x="202" y="-8"/>
      <point x="257" y="8"/>
      <point x="289" y="27" type="curve"/>
      <point x="284" y="114" type="line"/>
      <point x="270" y="107"/>
      <point x="238" y="93"/>
      <point x="209" y="93" type="curve" smooth="yes"/>
      <point x="185" y="93"/>
      <point x="168" y="105"/>
      <point x="168" y="133" type="curve" smooth="yes"/>
      <point x="168" y="139"/>
      <point x="169" y="146"/>
      <point x="171" y="159" type="curve" smooth="yes"/>
      <point x="231" y="438" type="line"/>
      <point x="339" y="438" type="line"/>
      <point x="356" y="523" type="line"/>
      <point x="249" y="523" type="line"/>
      <point x="286" y="695" type="line"/>
      <point x="176" y="695" type="line"/>
      <point x="139" y="523" type="line"/>
      <point x="73" y="523" type="line"/>
      <point x="55" y="438" type="line"/>
      <point x="121" y="438" type="line"/>
      <point x="51" y="111" type="line" smooth="yes"/>
      <point x="49" y="99"/>
      <point x="48" y="88"/>
      <point x="48" y="78" type="curve" smooth="yes"/>
      <point x="48" y="18"/>
      <point x="91" y="-8"/>
    </contour>
  </outline>
</glyph>
<glyph name="tilde" format="1">
  <advance width="407"/>
  <unicode hex="02DC"/>
  <outline>
    <contour>
      <point x="208" y="522" type="move" name="_top"/>
    </contour>
    <contour>
      <point x="268" y="615" type="curve" smooth="yes"/>
      <point x="354" y="615"/>
      <point x="399" y="713"/>
      <point x="403" y="730" type="curve"/>
      <point x="341" y="730" type="line"/>
      <point x="340" y="726"/>
      <point x="325" y="681"/>
      <point x="278" y="681" type="curve" smooth="yes"/>
      <point x="233" y="681"/>
      <point x="220" y="725"/>
      <point x="164" y="725" type="curve" smooth="yes"/>
      <point x="84" y="725"/>
      <point x="40" y="631"/>
      <point x="35" y="610" type="curve"/>
      <point x="98" y="610" type="line"/>
      <point x="98" y="614"/>
      <point x="111" y="658"/>
      <point x="153" y="658" type="curve" smooth="yes"/>
      <point x="195" y="658"/>
      <point x="211" y="615"/>
    </contour>
  </outline>
</glyph>
<glyph name="daggerdbl" format="1">
  <advance width="434"/>
  <unicode hex="2021"/>
  <outline>
    <contour>
      <point x="179" y="-130" type="line"/>
      <point x="232" y="123" type="line"/>
      <point x="357" y="123" type="line"/>
      <point x="378" y="222" type="line"/>
      <point x="253" y="222" type="line"/>
      <point x="277" y="334" type="line"/>
      <point x="401" y="334" type="line"/>
      <point x="422" y="433" type="line"/>
      <point x="298" y="433" type="line"/>
      <point x="371" y="775" type="line"/>
      <point x="266" y="775" type="line"/>
      <point x="193" y="433" type="line"/>
      <point x="68" y="433" type="line"/>
      <point x="47" y="334" type="line"/>
      <point x="172" y="334" type="line"/>
      <point x="148" y="222" type="line"/>
      <point x="23" y="222" type="line"/>
      <point x="2" y="123" type="line"/>
      <point x="127" y="123" type="line"/>
      <point x="74" y="-130" type="line"/>
    </contour>
  </outline>
</glyph>
<glyph name="uni20A6" format="1">
  <advance width="820"/>
  <unicode hex="20A6"/>
  <outline>
    <contour>
      <point x="782" y="305" type="line"/>
      <point x="39" y="305" type="line"/>
      <point x="25" y="239" type="line"/>
      <point x="768" y="239" type="line"/>
    </contour>
    <contour>
      <point x="814" y="455" type="line"/>
      <point x="71" y="455" type="line"/>
      <point x="57" y="388" type="line"/>
      <point x="800" y="388" type="line"/>
    </contour>
    <contour>
      <point x="543" y="0" type="line"/>
      <point x="636" y="0" type="line"/>
      <point x="787" y="709" type="line"/>
      <point x="674" y="709" type="line"/>
      <point x="565" y="198" type="line"/>
      <point x="297" y="710" type="line"/>
      <point x="209" y="710" type="line"/>
      <point x="58" y="0" type="line"/>
      <point x="170" y="0" type="line"/>
      <point x="277" y="500" type="line"/>
    </contour>
  </outline>
</glyph>
<glyph name="servicemark" format="1">
  <advance width="736"/>
  <unicode hex="2120"/>
  <outline>
    <contour>
      <point x="553" y="542" type="line"/>
      <point x="527" y="710" type="line"/>
      <point x="421" y="710" type="line"/>
      <point x="359" y="416" type="line"/>
      <point x="431" y="416" type="line"/>
      <point x="474" y="614" type="line"/>
      <point x="506" y="458" type="line"/>
      <point x="566" y="458" type="line"/>
      <point x="665" y="614" type="line"/>
      <point x="623" y="416" type="line"/>
      <point x="695" y="416" type="line"/>
      <point x="758" y="710" type="line"/>
      <point x="651" y="710" type="line"/>
    </contour>
    <contour>
      <point x="362" y="682" type="line"/>
      <point x="334" y="702"/>
      <point x="300" y="715"/>
      <point x="259" y="715" type="curve" smooth="yes"/>
      <point x="184" y="715"/>
      <point x="123" y="674"/>
      <point x="123" y="607" type="curve" smooth="yes"/>
      <point x="123" y="567"/>
      <point x="151" y="549"/>
      <point x="207" y="534" type="curve" smooth="yes"/>
      <point x="250" y="522"/>
      <point x="264" y="514"/>
      <point x="264" y="499" type="curve" smooth="yes"/>
      <point x="264" y="481"/>
      <point x="246" y="472"/>
      <point x="213" y="472" type="curve" smooth="yes"/>
      <point x="174" y="472"/>
      <point x="139" y="488"/>
      <point x="120" y="506" type="curve"/>
      <point x="78" y="452" type="line"/>
      <point x="108" y="427"/>
      <point x="153" y="411"/>
      <point x="200" y="411" type="curve" smooth="yes"/>
      <point x="278" y="411"/>
      <point x="338" y="446"/>
      <point x="338" y="516" type="curve" smooth="yes"/>
      <point x="338" y="560"/>
      <point x="306" y="580"/>
      <point x="248" y="594" type="curve" smooth="yes"/>
      <point x="207" y="604"/>
      <point x="195" y="613"/>
      <point x="195" y="625" type="curve" smooth="yes"/>
      <point x="195" y="645"/>
      <point x="212" y="656"/>
      <point x="246" y="656" type="curve" smooth="yes"/>
      <point x="279" y="656"/>
      <point x="306" y="641"/>
      <point x="323" y="625" type="curve"/>
    </contour>
  </outline>
</glyph>
<glyph name="Omega" format="1">
  <advance width="808"/>
  <unicode hex="2126"/>
  <outline>
    <contour>
      <point x="48" y="0" type="line"/>
      <point x="345" y="0" type="line"/>
      <point x="345" y="90" type="line"/>
      <point x="238" y="127"/>
      <point x="170" y="251"/>
      <point x="170" y="367" type="curve" smooth="yes"/>
      <point x="170" y="489"/>
      <point x="254" y="614"/>
      <point x="390" y="614" type="curve" smooth="yes"/>
      <point x="526" y="614"/>
      <point x="610" y="489"/>
      <point x="610" y="367" type="curve" smooth="yes"/>
      <point x="610" y="251"/>
      <point x="542" y="127"/>
      <point x="435" y="90" type="curve"/>
      <point x="435" y="0" type="line"/>
      <point x="733" y="0" type="line"/>
      <point x="733" y="90" type="line"/>
      <point x="560" y="90" type="line"/>
      <point x="660" y="146"/>
      <point x="723" y="248"/>
      <point x="723" y="367" type="curve" smooth="yes"/>
      <point x="723" y="550"/>
      <point x="580" y="715"/>
      <point x="390" y="715" type="curve" smooth="yes"/>
      <point x="200" y="715"/>
      <point x="58" y="550"/>
      <point x="58" y="367" type="curve" smooth="yes"/>
      <point x="58" y="248"/>
      <point x="120" y="146"/>
      <point x="220" y="90" type="curve"/>
      <point x="48" y="90" type="line"/>
    </contour>
  </outline>
</glyph>
<glyph name="Delta" format="1">
  <advance width="657"/>
  <unicode hex="2206"/>
  <outline>
    <contour>
      <point x="350" y="710" type="line"/>
      <point x="258" y="710" type="line"/>
      <point x="-1" y="85" type="line"/>
      <point x="-1" y="0" type="line"/>
      <point x="607" y="0" type="line"/>
      <point x="607" y="85" type="line"/>
    </contour>
    <contour>
      <point x="118" y="99" type="line"/>
      <point x="304" y="582" type="line"/>
      <point x="490" y="99" type="line"/>
    </contour>
  </outline>
</glyph>
<glyph name="notequal" format="1">
  <advance width="480"/>
  <unicode hex="2260"/>
  <outline>
    <contour>
      <point x="139" y="42" type="line"/>
      <point x="373" y="487" type="line"/>
      <point x="329" y="511" type="line"/>
      <point x="95" y="66" type="line"/>
    </contour>
    <contour>
      <point x="79" y="164" type="line"/>
      <point x="388" y="164" type="line"/>
      <point x="388" y="237" type="line"/>
      <point x="79" y="237" type="line"/>
    </contour>
    <contour>
      <point x="79" y="315" type="line"/>
      <point x="388" y="315" type="line"/>
      <point x="388" y="388" type="line"/>
      <point x="79" y="388" type="line"/>
    </contour>
  </outline>
</glyph>
<glyph name="f_f_i" format="1">
  <advance width="769"/>
  <unicode hex="FB03"/>
  <outline>
    <contour>
      <point x="27" y="0" type="line"/>
      <point x="137" y="0" type="line"/>
      <point x="227" y="425" type="line"/>
      <point x="358" y="425" type="line"/>
      <point x="268" y="0" type="line"/>
      <point x="378" y="0" type="line"/>
      <point x="468" y="425" type="line"/>
      <point x="620" y="425" type="line"/>
      <point x="530" y="0" type="line"/>
      <point x="640" y="0" type="line"/>
      <point x="749" y="510" type="line"/>
      <point x="486" y="510" type="line"/>
      <point x="492" y="534" type="line" smooth="yes"/>
      <point x="506" y="590"/>
      <point x="543" y="646"/>
      <point x="610" y="646" type="curve" smooth="yes"/>
      <point x="653" y="646"/>
      <point x="696" y="625"/>
      <point x="719" y="600" type="curve"/>
      <point x="781" y="682" type="line"/>
      <point x="740" y="712"/>
      <point x="685" y="740"/>
      <point x="619" y="740" type="curve" smooth="yes"/>
      <point x="552" y="740"/>
      <point x="495" y="714"/>
      <point x="453" y="675" type="curve"/>
      <point x="422" y="691"/>
      <point x="385" y="703"/>
      <point x="341" y="703" type="curve" smooth="yes"/>
      <point x="236" y="703"/>
      <point x="160" y="612"/>
      <point x="138" y="518" type="curve" smooth="yes"/>
      <point x="136" y="510" type="line"/>
      <point x="70" y="510" type="line"/>
      <point x="52" y="425" type="line"/>
      <point x="117" y="425" type="line"/>
    </contour>
    <contour>
      <point x="246" y="510" type="line"/>
      <point x="248" y="520" type="line" smooth="yes"/>
      <point x="257" y="566"/>
      <point x="288" y="609"/>
      <point x="342" y="609" type="curve" smooth="yes"/>
      <point x="362" y="609"/>
      <point x="389" y="605"/>
      <point x="405" y="593" type="curve"/>
      <point x="393" y="571"/>
      <point x="381" y="534"/>
      <point x="376" y="510" type="curve"/>
    </contour>
  </outline>
</glyph>
<glyph name="C.sc" format="1">
  <advance width="570"/>
  <outline>
    <contour>
      <point x="318" y="707" type="move" name="top"/>
    </contour>
    <contour>
      <point x="317" y="0" type="move" name="bottom"/>
    </contour>
    <contour>
      <point x="247" y="-5" type="curve" smooth="yes"/>
      <point x="337" y="-5"/>
      <point x="452" y="41"/>
      <point x="506" y="124" type="curve"/>
      <point x="435" y="172" type="line"/>
      <point x="393" y="110"/>
      <point x="323" y="84"/>
      <point x="269" y="84" type="curve" smooth="yes"/>
      <point x="180" y="84"/>
      <point x="129" y="157"/>
      <point x="129" y="241" type="curve" smooth="yes"/>
      <point x="129" y="345"/>
      <point x="216" y="469"/>
      <point x="349" y="469" type="curve" smooth="yes"/>
      <point x="401" y="469"/>
      <point x="459" y="448"/>
      <point x="476" y="384" type="curve"/>
      <point x="563" y="437" type="line"/>
      <point x="543" y="509"/>
      <point x="474" y="558"/>
      <point x="371" y="558" type="curve" smooth="yes"/>
      <point x="171" y="558"/>
      <point x="27" y="385"/>
      <point x="27" y="234" type="curve" smooth="yes"/>
      <point x="27" y="112"/>
      <point x="107" y="-5"/>
    </contour>
  </outline>
</glyph>
<glyph name="W.sc" format="1">
  <advance width="876"/>
  <outline>
    <contour>
      <point x="436" y="707" type="move" name="top"/>
    </contour>
    <contour>
      <point x="180" y="0" type="line"/>
      <point x="265" y="0" type="line"/>
      <point x="422" y="239" type="line"/>
      <point x="478" y="0" type="line"/>
      <point x="561" y="0" type="line"/>
      <point x="920" y="555" type="line"/>
      <point x="811" y="555" type="line"/>
      <point x="538" y="120" type="line"/>
      <point x="498" y="302" type="line"/>
      <point x="650" y="552" type="line"/>
      <point x="558" y="552" type="line"/>
      <point x="448" y="367" type="line"/>
      <point x="418" y="552" type="line"/>
      <point x="326" y="552" type="line"/>
      <point x="372" y="302" type="line"/>
      <point x="256" y="120" type="line"/>
      <point x="166" y="555" type="line"/>
      <point x="59" y="555" type="line"/>
    </contour>
  </outline>
</glyph>
<glyph name="Y.sc" format="1">
  <advance width="539"/>
  <outline>
    <contour>
      <point x="227" y="707" type="move" name="top"/>
    </contour>
    <contour>
      <point x="151" y="0" type="line"/>
      <point x="251" y="0" type="line"/>
      <point x="292" y="196" type="line"/>
      <point x="585" y="555" type="line"/>
      <point x="476" y="555" type="line"/>
      <point x="261" y="283" type="line"/>
      <point x="163" y="555" type="line"/>
      <point x="55" y="555" type="line"/>
      <point x="194" y="197" type="line"/>
    </contour>
  </outline>
</glyph>
<glyph name="a.alt2" format="1">
  <advance width="535"/>
  <outline>
    <contour>
      <point x="130" y="-10" type="curve" smooth="yes"/>
      <point x="200" y="-10"/>
      <point x="270" y="18"/>
      <point x="322" y="76" type="curve"/>
      <point x="307" y="0" type="line"/>
      <point x="413" y="0" type="line"/>
      <point x="481" y="319" type="line" smooth="yes"/>
      <point x="485" y="339"/>
      <point x="487" y="359"/>
      <point x="487" y="378" type="curve" smooth="yes"/>
      <point x="487" y="474"/>
      <point x="426" y="532"/>
      <point x="307" y="532" type="curve" smooth="yes"/>
      <point x="232" y="532"/>
      <point x="160" y="505"/>
      <point x="91" y="464" type="curve"/>
      <point x="110" y="394" type="line"/>
      <point x="173" y="433"/>
      <point x="227" y="454"/>
      <point x="280" y="454" type="curve" smooth="yes"/>
      <point x="343" y="454"/>
      <point x="377" y="421"/>
      <point x="377" y="366" type="curve" smooth="yes"/>
      <point x="377" y="355"/>
      <point x="376" y="344"/>
      <point x="373" y="331" type="curve" smooth="yes"/>
      <point x="365" y="295" type="line"/>
      <point x="342" y="307"/>
      <point x="299" y="319"/>
      <point x="242" y="319" type="curve" smooth="yes"/>
      <point x="119" y="319"/>
      <point x="-8" y="252"/>
      <point x="-8" y="125" type="curve" smooth="yes"/>
      <point x="-8" y="48"/>
      <point x="47" y="-10"/>
    </contour>
    <contour>
      <point x="178" y="71" type="curve" smooth="yes"/>
      <point x="133" y="71"/>
      <point x="100" y="101"/>
      <point x="100" y="147" type="curve" smooth="yes"/>
      <point x="100" y="222"/>
      <point x="179" y="256"/>
      <point x="246" y="256" type="curve" smooth="yes"/>
      <point x="281" y="256"/>
      <point x="319" y="248"/>
      <point x="351" y="233" type="curve"/>
      <point x="337" y="164" type="line" smooth="yes"/>
      <point x="334" y="152"/>
      <point x="323" y="139"/>
      <point x="310" y="126" type="curve" smooth="yes"/>
      <point x="275" y="89"/>
      <point x="221" y="71"/>
    </contour>
  </outline>
</glyph>
<glyph name="d.alt" format="1">
  <advance width="606"/>
  <outline>
    <contour>
      <point x="205" y="-10" type="curve" smooth="yes"/>
      <point x="274" y="-10"/>
      <point x="339" y="27"/>
      <point x="386" y="87" type="curve"/>
      <point x="368" y="0" type="line"/>
      <point x="477" y="0" type="line"/>
      <point x="632" y="730" type="line"/>
      <point x="522" y="730" type="line"/>
      <point x="457" y="424" type="line"/>
      <point x="434" y="486"/>
      <point x="383" y="532"/>
      <point x="306" y="532" type="curve" smooth="yes"/>
      <point x="156" y="532"/>
      <point x="19" y="377"/>
      <point x="19" y="206" type="curve" smooth="yes"/>
      <point x="19" y="86"/>
      <point x="88" y="-10"/>
    </contour>
    <contour>
      <point x="252" y="84" type="curve" smooth="yes"/>
      <point x="181" y="84"/>
      <point x="135" y="145"/>
      <point x="135" y="224" type="curve" smooth="yes"/>
      <point x="135" y="327"/>
      <point x="221" y="438"/>
      <point x="320" y="438" type="curve" smooth="yes"/>
      <point x="376" y="438"/>
      <point x="429" y="390"/>
      <point x="436" y="325" type="curve"/>
      <point x="408" y="188" type="line"/>
      <point x="381" y="129"/>
      <point x="307" y="84"/>
    </contour>
  </outline>
</glyph>
<glyph name="eight.numerator" format="1">
  <advance width="398"/>
  <outline>
    <contour>
      <point x="394" y="452" type="curve" smooth="yes"/>
      <point x="394" y="492"/>
      <point x="368" y="522"/>
      <point x="331" y="538" type="curve"/>
      <point x="378" y="555"/>
      <point x="418" y="588"/>
      <point x="418" y="635" type="curve" smooth="yes"/>
      <point x="418" y="693"/>
      <point x="355" y="730"/>
      <point x="290" y="730" type="curve" smooth="yes"/>
      <point x="212" y="730"/>
      <point x="116" y="680"/>
      <point x="116" y="607" type="curve" smooth="yes"/>
      <point x="116" y="574"/>
      <point x="139" y="550"/>
      <point x="168" y="538" type="curve"/>
      <point x="114" y="518"/>
      <point x="61" y="483"/>
      <point x="61" y="420" type="curve" smooth="yes"/>
      <point x="61" y="359"/>
      <point x="118" y="311"/>
      <point x="201" y="311" type="curve" smooth="yes"/>
      <point x="299" y="311"/>
      <point x="394" y="371"/>
    </contour>
    <contour>
      <point x="327" y="451" type="curve" smooth="yes"/>
      <point x="327" y="408"/>
      <point x="269" y="378"/>
      <point x="217" y="378" type="curve" smooth="yes"/>
      <point x="174" y="378"/>
      <point x="131" y="399"/>
      <point x="131" y="435" type="curve" smooth="yes"/>
      <point x="131" y="478"/>
      <point x="188" y="508"/>
      <point x="243" y="508" type="curve" smooth="yes"/>
      <point x="286" y="508"/>
      <point x="327" y="486"/>
    </contour>
    <contour>
      <point x="183" y="608" type="curve" smooth="yes"/>
      <point x="183" y="643"/>
      <point x="229" y="666"/>
      <point x="277" y="666" type="curve" smooth="yes"/>
      <point x="315" y="666"/>
      <point x="350" y="649"/>
      <point x="350" y="621" type="curve" smooth="yes"/>
      <point x="350" y="585"/>
      <point x="296" y="563"/>
      <point x="255" y="563" type="curve" smooth="yes"/>
      <point x="219" y="563"/>
      <point x="183" y="580"/>
    </contour>
  </outline>
</glyph>
<glyph name="nine.lnum" format="1">
  <advance width="592"/>
  <outline>
    <contour>
      <point x="74" y="426" type="curve" smooth="yes"/>
      <point x="74" y="583"/>
      <point x="220" y="715"/>
      <point x="377" y="715" type="curve" smooth="yes"/>
      <point x="498" y="715"/>
      <point x="569" y="629"/>
      <point x="569" y="485" type="curve" smooth="yes"/>
      <point x="569" y="219"/>
      <point x="423" y="-10"/>
      <point x="212" y="-10" type="curve" smooth="yes"/>
      <point x="126" y="-10"/>
      <point x="61" y="34"/>
      <point x="31" y="110" type="curve"/>
      <point x="110" y="178" type="line"/>
      <point x="127" y="122"/>
      <point x="174" y="87"/>
      <point x="233" y="87" type="curve" smooth="yes"/>
      <point x="326" y="87"/>
      <point x="404" y="175"/>
      <point x="439" y="328" type="curve"/>
      <point x="400" y="269"/>
      <point x="333" y="231"/>
      <point x="264" y="231" type="curve" smooth="yes"/>
      <point x="149" y="231"/>
      <point x="74" y="316"/>
    </contour>
    <contour>
      <point x="356" y="622" type="curve" smooth="yes"/>
      <point x="271" y="622"/>
      <point x="182" y="537"/>
      <point x="182" y="443" type="curve" smooth="yes"/>
      <point x="182" y="374"/>
      <point x="227" y="320"/>
      <point x="293" y="320" type="curve" smooth="yes"/>
      <point x="379" y="320"/>
      <point x="467" y="402"/>
      <point x="467" y="497" type="curve" smooth="yes"/>
      <point x="467" y="566"/>
      <point x="422" y="622"/>
    </contour>
  </outline>
</glyph>
